<svg data-v-423bf9ae="" xmlns="http://www.w3.org/2000/svg" viewBox="0 0 515 107" class="iconLeft"><!----><!----><!----><g data-v-423bf9ae="" id="a4f54b2b-b479-4405-b4ae-a4bc3343c81c" fill="#000000" transform="matrix(4.5078887939453125,0,0,4.5078887939453125,96.62152862548828,8.32117748260498)"><path d="M5.81 3.98C5.32 3.92 5.10 3.92 4.58 3.92L1.25 3.92L1.25 13.58L4.55 13.58C5.07 13.58 5.29 13.58 5.78 13.52C8.02 13.26 9.79 11.58 9.79 8.62C9.79 5.67 8.05 4.24 5.81 3.98ZM5.35 12.01C5.04 12.05 4.75 12.05 4.33 12.05L3.18 12.05L3.18 5.43L4.35 5.43C4.79 5.43 5.07 5.45 5.39 5.49C6.82 5.67 7.74 6.75 7.74 8.65C7.74 10.63 6.79 11.83 5.35 12.01ZM12.08 3.36C11.45 3.36 11.02 3.78 11.02 4.38C11.02 5.00 11.45 5.40 12.08 5.40C12.71 5.40 13.15 5.00 13.15 4.38C13.15 3.78 12.71 3.36 12.08 3.36ZM13.05 13.58L13.05 6.13L11.12 6.13L11.12 13.58ZM21.60 9.70C21.60 7.67 20.40 5.94 18.12 5.94C15.83 5.94 14.34 7.60 14.34 9.88C14.34 12.50 15.92 13.78 17.96 13.78C19.71 13.78 21.11 12.89 21.49 11.16L19.56 11.16C19.43 11.96 18.83 12.42 18.00 12.42C17.11 12.42 16.41 11.93 16.28 10.36L21.57 10.36C21.60 10.11 21.60 9.88 21.60 9.70ZM18.03 7.29C18.96 7.29 19.49 7.92 19.61 9.10L16.34 9.10C16.51 7.87 17.14 7.29 18.03 7.29ZM30.17 6.13L28.24 6.13L28.24 7.13L27.75 6.36C27.37 6.09 26.61 5.94 26.00 5.94C24.08 5.94 22.43 7.24 22.43 9.94C22.43 12.12 23.73 13.62 25.83 13.62C26.59 13.62 27.26 13.43 27.68 13.10L28.24 12.28L28.24 12.46C28.24 12.78 28.24 13.09 28.22 13.37C28.15 14.56 27.43 15.16 26.24 15.16C25.24 15.16 24.60 14.73 24.51 14.04L24.50 13.92L22.62 13.92L22.64 14.06C22.81 15.69 24.02 16.60 26.21 16.60C28.56 16.60 30.07 15.48 30.16 13.16C30.17 12.75 30.17 12.18 30.17 11.72ZM26.31 12.26C25.16 12.26 24.43 11.30 24.43 9.77C24.43 8.06 25.26 7.29 26.38 7.29C27.27 7.29 28.24 7.90 28.24 9.58L28.24 9.79C28.24 11.61 27.37 12.26 26.31 12.26ZM35.32 5.94C32.84 5.94 31.46 7.59 31.46 9.86C31.46 12.11 32.84 13.78 35.32 13.78C37.80 13.78 39.19 12.11 39.19 9.86C39.19 7.59 37.80 5.94 35.32 5.94ZM35.32 12.42C34.16 12.42 33.46 11.45 33.46 9.86C33.46 8.25 34.16 7.29 35.32 7.29C36.48 7.29 37.18 8.25 37.18 9.86C37.18 11.45 36.48 12.42 35.32 12.42ZM47.67 3.72C45.00 3.72 42.99 5.64 42.99 8.81C42.99 11.89 44.84 13.78 47.53 13.78C50.01 13.78 51.58 12.43 51.79 10.37L51.80 10.23L49.88 10.23L49.85 10.37C49.60 11.58 48.87 12.33 47.61 12.33C46.14 12.33 45.04 11.10 45.04 8.69C45.04 6.50 46.09 5.17 47.64 5.17C48.93 5.17 49.66 5.87 49.90 7.06L49.92 7.20L51.86 7.20L51.84 7.06C51.65 5.15 50.29 3.72 47.67 3.72ZM56.57 5.94C54.10 5.94 52.71 7.59 52.71 9.86C52.71 12.11 54.10 13.78 56.57 13.78C59.05 13.78 60.44 12.11 60.44 9.86C60.44 7.59 59.05 5.94 56.57 5.94ZM56.57 12.42C55.41 12.42 54.71 11.45 54.71 9.86C54.71 8.25 55.41 7.29 56.57 7.29C57.74 7.29 58.44 8.25 58.44 9.86C58.44 11.45 57.74 12.42 56.57 12.42ZM63.57 3.29L61.64 3.29L61.64 11.19C61.64 11.68 61.64 12.03 61.67 12.36C61.71 13.33 62.31 13.68 63.27 13.68C63.70 13.68 64.08 13.66 64.46 13.62L64.46 12.29C63.80 12.33 63.63 12.21 63.59 11.83C63.57 11.63 63.57 11.44 63.57 11.14ZM68.96 5.94C66.49 5.94 65.10 7.59 65.10 9.86C65.10 12.11 66.49 13.78 68.96 13.78C71.44 13.78 72.83 12.11 72.83 9.86C72.83 7.59 71.44 5.94 68.96 5.94ZM68.96 12.42C67.80 12.42 67.10 11.45 67.10 9.86C67.10 8.25 67.80 7.29 68.96 7.29C70.13 7.29 70.83 8.25 70.83 9.86C70.83 11.45 70.13 12.42 68.96 12.42ZM81.03 8.02C80.88 6.72 79.97 5.94 78.39 5.94C77.67 5.94 77.13 6.08 76.59 6.45L76.02 7.34L76.02 6.13L74.09 6.13L74.09 13.58L76.02 13.58L76.02 10.18C76.02 8.11 76.76 7.29 77.70 7.29C78.64 7.29 79.07 7.83 79.13 8.61C79.16 8.99 79.16 9.34 79.16 9.65L79.16 13.58L81.09 13.58L81.09 9.38C81.09 8.78 81.07 8.40 81.03 8.02ZM83.75 3.36C83.12 3.36 82.68 3.78 82.68 4.38C82.68 5.00 83.12 5.40 83.75 5.40C84.38 5.40 84.81 5.00 84.81 4.38C84.81 3.78 84.38 3.36 83.75 3.36ZM84.71 13.58L84.71 6.13L82.78 6.13L82.78 13.58ZM90.83 13.58L92.72 13.58C92.61 12.75 92.58 12.25 92.58 11.69L92.58 9.28C92.58 8.88 92.57 8.48 92.54 8.13C92.43 6.85 91.64 5.94 89.56 5.94C87.78 5.94 86.42 6.89 86.37 8.57L88.24 8.55C88.30 7.74 88.72 7.29 89.49 7.29C90.24 7.29 90.58 7.67 90.64 8.19C90.66 8.44 90.66 8.67 90.66 8.89L90.66 9.04L90.19 9.04C87.49 9.04 86.09 9.97 86.09 11.61C86.09 13.02 87.19 13.78 88.48 13.78C89.18 13.78 89.81 13.64 90.33 13.29L90.69 12.49ZM89.22 12.42C88.54 12.42 88.09 12.11 88.09 11.45C88.09 10.47 89.12 10.12 90.66 10.23L90.66 10.84C90.66 11.87 90.01 12.42 89.22 12.42Z"></path></g><defs data-v-423bf9ae=""><linearGradient data-v-423bf9ae="" gradientTransform="rotate(25)" id="c753e19a-e53f-4c73-8b37-52f8659fc2db" x1="0%" y1="0%" x2="100%" y2="0%"><stop data-v-423bf9ae="" offset="0%" style="stop-color: rgb(0, 118, 221); stop-opacity: 1;"></stop><stop data-v-423bf9ae="" offset="100%" style="stop-color: rgb(230, 0, 233); stop-opacity: 1;"></stop></linearGradient></defs><g data-v-423bf9ae="" id="767d58af-c91e-4afa-94da-8fb7ee19cbba" transform="matrix(1.0868111848831177,0,0,1.0868111848831177,-13.255263328552246,-0.23894432187080383)" stroke="none" fill="url(#c753e19a-e53f-4c73-8b37-52f8659fc2db)"><g clip-rule="evenodd"><path d="M12.983 10.59l17.018 88.223-5.872-59.049 29.021-1.892-.054-9.883L64.549 1 53.622 18.977z"></path><path d="M59.389 54.548l5.16-53.541-8.74 39.716-19.612 1.045 1.57 20.462-7.766 36.583 12.057-39.899z"></path><path d="M62.8 67.182l.549-10.453-15.979 3.755-.032 11.797-17.337 26.532 21.68-27.616zM65.711 62.394l14.841-4.731 1.509-12.532-15.899 2.095zM72.07 44.502l10.988-1.417 1.581-10.278-8.079-.373L64.549 1l8.43 30.967z"></path><path d="M87.413 31.294l1.256-9.506-9.544-2.694L64.549 1l14.483 22.437-.422 7z"></path></g></g><!----></svg>